<svg width="128" height="128" viewBox="0 0 128 128" fill="none" xmlns="http://www.w3.org/2000/svg">
<rect width="128" height="128" fill="#FB923C"/>
<path d="M96.1195 56.108C96.1195 59.948 95.6075 63.66 94.5835 67.244C93.6235 70.828 92.2155 74.028 90.3595 76.844C88.5675 79.66 86.4235 81.932 83.9275 83.66C81.4955 85.324 78.7755 86.156 75.7675 86.156C72.9515 86.156 70.7115 85.964 69.0475 85.58C67.4475 85.196 66.1355 84.812 65.1115 84.428C64.0875 83.98 63.2875 83.564 62.7115 83.18C62.1355 82.796 61.4955 82.604 60.7915 82.604C59.3835 82.604 58.1675 83.052 57.1435 83.948C56.1835 84.844 55.7035 86.412 55.7035 88.652C55.7035 90.188 55.8315 91.724 56.0875 93.26C56.4075 94.796 56.5675 96.332 56.5675 97.868C56.5675 99.148 56.1515 100.236 55.3195 101.132C54.5515 102.028 53.5595 102.732 52.3435 103.244C51.1915 103.82 49.9115 104.204 48.5035 104.396C47.0955 104.652 45.7515 104.78 44.4715 104.78C42.0395 104.78 39.8635 104.46 37.9435 103.82C36.0235 103.244 34.6475 101.932 33.8155 99.884C33.1755 98.348 32.6635 96.268 32.2795 93.644C31.9595 91.02 31.7035 88.268 31.5115 85.388C31.3195 82.508 31.1915 79.724 31.1275 77.036C31.0635 74.284 31.0315 72.012 31.0315 70.22C31.0315 68.62 31.0635 66.668 31.1275 64.364C31.1915 61.996 31.3195 59.5 31.5115 56.876C31.7035 54.188 31.9595 51.436 32.2795 48.62C32.5995 45.804 32.9835 43.116 33.4315 40.556C33.8795 37.996 34.4235 35.66 35.0635 33.548C35.7675 31.436 36.5355 29.74 37.3675 28.46C38.1995 27.244 39.2555 26.284 40.5355 25.58C41.8155 24.812 43.1915 24.236 44.6635 23.852C46.1995 23.468 47.7355 23.212 49.2715 23.084C50.8075 22.956 52.2475 22.892 53.5915 22.892C59.6715 22.892 65.3035 23.372 70.4875 24.332C75.6715 25.228 80.1515 26.924 83.9275 29.42C87.7035 31.852 90.6795 35.212 92.8555 39.5C95.0315 43.788 96.1195 49.324 96.1195 56.108ZM57.9115 55.436C57.9115 56.204 58.0395 57.068 58.2955 58.028C58.5515 58.924 58.9035 59.788 59.3515 60.62C59.8635 61.388 60.5035 62.06 61.2715 62.636C62.0395 63.148 62.9035 63.404 63.8635 63.404C64.8235 63.404 65.9115 63.308 67.1275 63.116C68.3435 62.86 69.4635 62.444 70.4875 61.868C71.5115 61.228 72.3755 60.332 73.0795 59.18C73.7835 58.028 74.1355 56.524 74.1355 54.668C74.1355 53.708 73.8155 52.876 73.1755 52.172C72.5355 51.468 71.7675 50.892 70.8715 50.444C69.9755 49.996 68.9835 49.676 67.8955 49.484C66.8715 49.228 65.9755 49.1 65.2075 49.1C62.9675 49.1 61.1755 49.548 59.8315 50.444C58.5515 51.34 57.9115 53.004 57.9115 55.436Z" fill="white"/>
</svg>
